<svg id="svg2" xmlns="http://www.w3.org/2000/svg" xmlns:xlink="http://www.w3.org/1999/xlink" viewBox="0 0 951.19 937.76"><defs><style>.cls-1{fill:#00897b;}.cls-13,.cls-2,.cls-3,.cls-4,.cls-5{fill:none;}.cls-2,.cls-5{stroke:#fff;opacity:0.05;}.cls-2{stroke-width:1.6px;}.cls-10,.cls-11,.cls-12,.cls-13,.cls-14,.cls-15,.cls-2,.cls-3,.cls-4,.cls-5,.cls-6,.cls-8{isolation:isolate;}.cls-13,.cls-3,.cls-4{stroke:#000;}.cls-3,.cls-4,.cls-5{stroke-width:1.2px;}.cls-3{opacity:0.2;}.cls-4{opacity:0.3;}.cls-6,.cls-8{opacity:0.08;}.cls-6{filter:url(#filter61860-9-4-7);}.cls-7{fill:url(#radial-gradient);}.cls-8{filter:url(#filter61860-9-4-7-6);}.cls-9{fill:url(#radial-gradient-2);}.cls-10,.cls-11{opacity:0.1;}.cls-10{fill:url(#radial-gradient-3);}.cls-11{fill:url(#radial-gradient-4);}.cls-12,.cls-13{opacity:0.25;}.cls-13{stroke-width:1.5px;}.cls-14,.cls-15{opacity:0.06;}.cls-14{fill:url(#radial-gradient-5);}.cls-15{fill:url(#radial-gradient-6);}</style><filter id="filter61860-9-4-7" x="-1018.15" y="-0.83" width="1.3" height="1.09" name="filter61860-9-4-7"><feGaussianBlur result="feGaussianBlur61862-55-3-5" stdDeviation="4.02"/></filter><radialGradient id="radial-gradient" cx="1293.46" cy="-83.85" r="246.51" gradientTransform="translate(34.14 368.16) scale(1.14 1.3)" gradientUnits="userSpaceOnUse"><stop offset="0"/><stop offset="0.69"/><stop offset="1" stop-opacity="0"/></radialGradient><filter id="filter61860-9-4-7-6" x="-1018.15" y="-0.83" width="1.3" height="1.09" name="filter61860-9-4-7-6"><feGaussianBlur result="feGaussianBlur61862-55-3-5-3" stdDeviation="4.02"/></filter><radialGradient id="radial-gradient-2" cx="2488.44" cy="-83.85" r="246.51" gradientTransform="matrix(-1.14, 0, 0, 1.3, 4313.47, 368.16)" xlink:href="#radial-gradient"/><radialGradient id="radial-gradient-3" cx="1179.4" cy="764.64" r="95.13" gradientTransform="matrix(-1.08, -1.43, -0.96, 0.73, 3201.94, 1448.21)" gradientUnits="userSpaceOnUse"><stop offset="0"/><stop offset="0.5" stop-opacity="0.61"/><stop offset="1" stop-opacity="0"/></radialGradient><radialGradient id="radial-gradient-4" cx="721.71" cy="-135.79" r="95.13" gradientTransform="matrix(1.08, -1.43, 0.96, 0.73, 1143.26, 1448.21)" xlink:href="#radial-gradient-3"/><radialGradient id="radial-gradient-5" cx="151.08" cy="-714.63" r="95.04" gradientTransform="matrix(0.78, 1.8, 1.21, -0.53, 2017.72, -4.92)" gradientUnits="userSpaceOnUse"><stop offset="0"/><stop offset="0.58" stop-opacity="0.61"/><stop offset="1" stop-opacity="0"/></radialGradient><radialGradient id="radial-gradient-6" cx="428.11" cy="231.04" r="95.04" gradientTransform="matrix(-0.78, 1.8, -1.21, -0.53, 2327.47, -4.92)" xlink:href="#radial-gradient-5"/></defs><title>tshirt</title><path id="path61740" class="cls-1" d="M1424.5,938.39c-67.3-2.72-121.21-9.07-161-19-23-5.74-48.57-16.93-60.25-26.42-6.12-5-6.25-5.18-6.25-10,0-2.69,1.56-15.39,3.46-28.2S1208,802,1213,766c9.63-69.46,15.44-109,19.64-133.5,2.94-17.13,3.1-24.07,1-41.18-1.69-13.55-1.62-14.09,4.53-33.32,3.43-10.74,3.48-9.67-1.75-37.5-2.33-12.38-2.66-16.89-2.88-39-.28-27.11-.41-28-6.56-43.8-2.17-5.57-4.89-13.51-6.05-17.66-4.5-16.07-11.85-26.47-18.26-25.84-2.57.25-3.54,1.13-5.61,5.07-1.37,2.62-3.52,5.46-4.77,6.32-2.75,1.89-5.92,8-12.73,24.42l-5.17,12.5-10.92-.16c-17.59-.26-39.52-5.7-68.16-16.9-16.76-6.55-44.19-20.24-54.88-27.38-10.37-6.93-22.37-17.5-22.37-19.71,0-2.73,34.65-84.73,59.51-140.84,29.15-65.79,46.64-98.21,65.91-122.15,12-14.91,21.11-21,44.65-29.88a283.45,283.45,0,0,0,26.43-11.41c5.75-3.09,10.9-5.09,14.25-5.55a24.45,24.45,0,0,0,8.85-3.15,35.52,35.52,0,0,1,9.75-3.88c12.2-2.85,52.81-18.48,76.49-29.45,15.94-7.38,23.82-11.61,35.08-18.82,5.32-3.41,10.11-5.68,13-6.16a59.64,59.64,0,0,0,9.68-2.76l5.1-2,4.4,2.23c13.25,6.72,36,12.32,61.21,15.09,17.48,1.92,60.49,2.16,76.7.43,25.69-2.74,48-8.14,62.79-15.19l8.55-4.08,7.08,3.11c3.9,1.71,7.76,3.11,8.58,3.11s6.22,3,12,6.57c12.26,7.67,36.79,19.83,56.07,27.78,19.09,7.88,48.27,18.45,55.68,20.16a38.07,38.07,0,0,1,10,3.89,25.59,25.59,0,0,0,8.75,3.14c3,.42,8.57,2.61,14,5.52A286.54,286.54,0,0,0,1799,85.5c9.62,3.63,18.4,7.25,19.5,8s4.44,3.12,7.42,5.16c16.19,11.1,34.64,37.48,55.83,79.8,14.77,29.5,41.63,90.19,72.68,164.21l14.77,35.21-2.15,3c-2.28,3.2-13.86,12.89-20.54,17.18-25.2,16.19-70.25,34.84-100,41.4-14.56,3.21-32.5,4.46-34.12,2.37A78.21,78.21,0,0,1,1808,432c-5.33-13.63-10.74-23.75-13.94-26.12a10.19,10.19,0,0,1-3.56-4.9c-.81-3.7-4.08-7-7-7-5.81,0-13.22,11.08-17.41,26-1.16,4.15-3.89,12.09-6.05,17.66-6.12,15.7-6.26,16.69-6.52,43.8-.21,22.23-.53,26.55-2.89,39-5.31,28-5.25,26.54-1.33,39,6,19.14,5.91,18.26,4.21,31.2-2.29,17.43-1.94,24.69,2.46,51.47,2.2,13.38,7.39,48.4,11.53,77.83s10.71,75.77,14.59,103,7.51,52.79,8.07,56.81c1.18,8.42,1.15,8.48-8.18,15.68-24.21,18.68-76.5,32.16-149.5,38.52-40.23,3.51-59.75,4.18-129,4.44-39,.15-74.6.12-79-.06Z" transform="translate(-1018 -0.78)"/><g id="g62265"><path id="path62048-8-5" class="cls-2" d="M1022.14,366.79s65.42,58.64,154.92,66.78" transform="translate(-1018 -0.78)"/><path id="path62048-82" class="cls-3" d="M1022.14,364.78s65.42,58.64,154.92,66.78" transform="translate(-1018 -0.78)"/><path id="path62048-8-1-3" class="cls-2" d="M1965.05,366.79s-65.42,58.64-154.92,66.78" transform="translate(-1018 -0.78)"/><path id="path62048-1-0" class="cls-3" d="M1965.05,364.78s-65.42,58.64-154.92,66.78" transform="translate(-1018 -0.78)"/></g><g id="g62317"><path id="path61736-4" class="cls-4" d="M1198.92,870.7s38.91,46.67,302.53,46.67c239.4,0,286.82-45,286.82-45" transform="translate(-1018 -0.78)"/><path id="path61736-5-0" class="cls-5" d="M1198.92,872.45s38.91,46.67,302.53,46.67c239.4,0,286.82-45,286.82-45" transform="translate(-1018 -0.78)"/></g><g class="cls-6"><path class="cls-7" d="M1742.09,52s28,96-134,472l84,78S1834.09,402,1742.09,52Z" transform="translate(-1018 -0.78)"/></g><g class="cls-8"><path class="cls-9" d="M1247.51,52s-28,96,134,472l-84,78S1155.51,402,1247.51,52Z" transform="translate(-1018 -0.78)"/></g><g id="g62652"><path id="path61810-4" class="cls-10" d="M1187.27,180.34,1139,189.62,1202.11,392C1209.54,309.36,1187.27,180.34,1187.27,180.34ZM1127,195.22l-41.78,29.69,110.44,171.72,8.38,6.5Zm-74.25,37.13-19.5,75.16,166.12,104Z" transform="translate(-1018 -0.78)"/><path id="path61810-3-0" class="cls-11" d="M1799.92,180.34l48.25,9.28L1785.08,392C1777.66,309.36,1799.92,180.34,1799.92,180.34Zm60.31,14.88L1902,224.91,1791.58,396.62l-8.37,6.5Zm74.25,37.13L1954,307.5l-166.12,104Z" transform="translate(-1018 -0.78)"/></g><g id="g62681"><path id="path61714-7" class="cls-12" d="M1782,392.13s0-125.3,19.89-209.49C1795.24,205.18,1782,392.13,1782,392.13Z" transform="translate(-1018 -0.78)"/><path id="path61714-0-6" class="cls-12" d="M1205.21,392.13s0-125.3-19.89-209.49C1192,205.18,1205.21,392.13,1205.21,392.13Z" transform="translate(-1018 -0.78)"/></g><path id="path62685" class="cls-13" d="M1370.86,7.72s34,30.56,124.3,30.56,119.2-30.56,119.2-30.56" transform="translate(-1018 -0.78)"/><path id="path62685-7" class="cls-5" d="M1370.86,9.42s34,30.56,124.3,30.56,119.2-30.56,119.2-30.56" transform="translate(-1018 -0.78)"/><path id="path62714" class="cls-14" d="M1240.41,500.91l-6.44.66a127.34,127.34,0,0,0,2.41,18.94c5.23,27.83,5.18,26.76,1.75,37.5-2.44,7.62-3.92,12.28-4.72,16C1265.28,698.44,1372,817.81,1372,817.81l-2.09-53.69C1235.15,599.88,1240.41,500.91,1240.41,500.91Zm-9.06,139.28c-1.87,11.39-4.07,25.63-6.72,43.69,15.28,64.33,45.31,142.95,104.22,200.28L1349.91,841l-6.34-8.41C1337.42,820.27,1274.17,750.84,1231.35,640.19Z" transform="translate(-1018 -0.78)"/><path id="path62714-1" class="cls-15" d="M1746.78,500.91s5.26,99-129.5,263.22l-2.09,53.69s106.59-119.24,138.53-243.59c-.78-3.31-2.18-7.65-4.41-14.72-3.92-12.46-4-11,1.34-39a125.4,125.4,0,0,0,2.44-19Zm8.94,139.56c-42.82,110.49-106,179.81-112.09,192.09l-6.34,8.41,21.06,43.19c58.72-57.15,88.74-135.44,104.06-199.66-2.63-17.94-5.08-34.23-6.41-42.34C1755.9,641.54,1755.82,641.07,1755.72,640.47Z" transform="translate(-1018 -0.78)"/></svg>